<?xml version="1.0" encoding="UTF-8" standalone="no"?>
<!-- Created with Inkscape (http://www.inkscape.org/) -->

<svg
   version="1.1"
   id="svg1"
   width="29.070957"
   height="32.817169"
   viewBox="0 0 29.070957 32.817169"
   xml:space="preserve"
   xmlns="http://www.w3.org/2000/svg"
   xmlns:svg="http://www.w3.org/2000/svg"><defs
     id="defs1" /><g
     id="g1"
     transform="translate(-67.023989,-86.882407)"><path
       d="m 73.33063,112.74374 c -0.01787,10e-4 -0.03598,0.003 -0.05469,0.006 -0.62396,0.1 -0.440844,0.99977 0.160156,0.9004 0.594435,-0.0983 0.448419,-0.94094 -0.105468,-0.90625 z m 9.228515,0.43554 c -0.133122,0.003 -0.267232,0.0168 -0.402344,0.043 -2.056799,0.39838 -2.512778,3.19201 -1.767578,4.8418 0.47911,1.06068 1.51772,1.71355 2.6875,1.49609 1.55967,-0.28995 2.058674,-1.84639 2.058594,-3.23047 -4e-5,-0.62328 -0.06198,-1.22312 -0.351562,-1.78711 -0.43547,-0.84822 -1.292753,-1.38296 -2.22461,-1.36328 z m -5.060547,0.0156 c -1.00819,-0.0684 -1.866237,0.45766 -2.335937,1.34765 -0.62429,1.18291 -0.62492,3.10192 0.25,4.16993 0.84544,1.03203 2.645839,1.31686 3.386719,0 h 0.107421 c 0.0733,0.13155 0.14608,0.26677 0.28711,0.33789 0.18883,0.0952 0.423755,-0.003 0.421875,-0.23243 -0.002,-0.28095 -0.281184,-0.54312 -0.365235,-0.80859 -0.114059,-0.36023 -0.07227,-0.76382 -0.07227,-1.13672 0.16352,-2.6e-4 0.370714,0.0255 0.521484,-0.0508 0.17041,-0.0863 0.17073,-0.30058 0,-0.38672 -0.24097,-0.12158 -0.63763,-0.0508 -0.90039,-0.0508 -0.36087,0 -0.723155,-0.005 -1.083985,0 -0.13162,0.002 -0.319779,-0.0122 -0.412109,0.10352 -0.11807,0.14802 -0.0081,0.3261 0.152344,0.36523 0.34524,0.0842 0.772443,0.0195 1.126953,0.0195 0,0.52589 0.009,1.03921 -0.251953,1.51563 -0.46288,0.84489 -1.454197,0.86681 -2.123047,0.24804 -1.27178,-1.17656 -1.201809,-3.9369 0.425781,-4.78906 0.24417,-0.12784 0.746591,-0.29523 0.957031,-0.0254 0.14043,0.1801 0.12464,0.39716 0.34961,0.52148 0.30126,0.16647 0.673828,0.0304 0.673828,-0.34179 0,-0.54154 -0.669065,-0.77639 -1.115235,-0.80664 z m -9.033203,0.0918 c -0.152944,0.008 -0.295984,0.0428 -0.365234,0.15039 -0.18105,0.28131 0.267785,0.34975 0.359375,0.53321 0.0889,0.17804 0.05078,0.43433 0.05078,0.62695 v 4.38672 c -0.238963,0.0115 -0.714459,0.27153 -0.302734,0.48633 0.23532,0.12277 0.640737,0.0624 0.898437,0.0527 0.21665,-0.008 0.688863,-0.21449 0.345703,-0.46484 -0.11209,-0.0818 -0.26952,-0.0711 -0.40039,-0.0742 v -2.70703 c 0,-0.25648 -0.09845,-0.77765 0.18164,-0.91992 0.15293,-0.0777 0.355635,-0.0543 0.521485,-0.0547 0.38165,-7.6e-4 0.816826,-0.058 1.191406,0.0215 0.16729,0.0355 0.534121,0.32746 0.681641,0.14258 0.0861,-0.1079 0.01534,-0.27445 -0.03516,-0.38086 -0.1108,-0.23359 -0.606632,-0.96041 -0.789062,-0.38867 -0.0161,0.0505 -0.01503,0.12295 -0.01953,0.17188 l -1.191407,-0.002 -0.466797,-0.13867 -0.07422,-0.94336 h 1.460937 c 0.25413,2e-5 0.529306,-0.0278 0.759766,0.0996 0.19667,0.1087 0.665712,0.67715 0.919922,0.47266 0.11367,-0.0914 0.0254,-0.26093 -0.0332,-0.35547 -0.14368,-0.23174 -0.370308,-0.50647 -0.617188,-0.63086 -0.25087,-0.12639 -0.592944,-0.0723 -0.865234,-0.0723 h -1.78711 c -0.107695,0 -0.270884,-0.0195 -0.423828,-0.0117 z m 17.535156,0.0117 c -0.135909,0.004 -0.319637,0.004 -0.398437,0.13867 -0.15304,0.26141 0.263069,0.35065 0.349609,0.5293 0.0878,0.18121 0.04883,0.43559 0.04883,0.63086 v 4.38672 c -0.111577,0.005 -0.24298,-4.8e-4 -0.335937,0.0742 -0.29826,0.24013 0.126558,0.45394 0.335937,0.46484 0.25025,0.013 0.622939,0.0605 0.855469,-0.0469 0.43028,-0.19871 0.002,-0.47487 -0.259765,-0.49219 v -1.08398 c 0.33214,9.5e-4 0.647236,0.007 0.910156,0.24023 0.50172,0.44521 0.619724,1.26239 1.365234,1.42187 0.42465,0.0908 1.369798,-0.29468 0.955078,-0.86523 -0.29315,-0.40331 -0.667481,0.2023 -0.738281,0.44922 l -0.623047,-0.86524 -0.515625,-0.54296 c 1.4723,-0.11805 2.248719,-1.94428 1.605469,-3.19532 -0.43726,-0.8504 -1.510506,-1.23126 -2.416016,-1.24414 -0.37803,-0.005 -0.760762,-0.0106 -1.138672,0 z m 6.203125,0.2793 c -0.233031,0.0124 -0.464312,0.057 -0.679687,0.13477 -0.56657,0.20453 -1.151386,0.82802 -0.853516,1.47265 0.13408,0.29017 0.498945,0.32821 0.708985,0.0937 0.2608,-0.29116 -0.0029,-0.74041 0.322265,-0.99023 0.16457,-0.12649 0.379212,-0.16761 0.582032,-0.17383 1.050668,-0.0322 1.493415,0.98435 1.515625,1.89062 -0.39191,-0.3312 -0.835656,-0.53321 -1.353516,-0.54101 -0.4076,-0.006 -0.773129,0.0403 -1.136719,0.23828 -0.31588,0.17203 -0.578128,0.42738 -0.761719,0.73633 -0.49454,0.83221 -0.401658,2.02382 0.332032,2.68554 0.84405,0.76125 2.494641,0.68855 3.082031,-0.35742 h 0.109375 c 0.11402,0.32346 0.318441,0.65292 0.650391,0.78907 0.17558,0.072 0.444733,0.0754 0.501953,-0.15235 0.0601,-0.23928 -0.177378,-0.42134 -0.304688,-0.58789 -0.14674,-0.19198 -0.236732,-0.4098 -0.289062,-0.64453 -0.2786,-1.24943 0.17503,-2.67425 -0.59961,-3.78711 -0.40596,-0.58321 -1.127076,-0.84383 -1.826172,-0.80664 z m -9.59375,0.0996 c 0.662868,0.006 1.214742,0.44691 1.53711,1.0293 0.52398,0.94662 0.561575,2.27922 0.07813,3.24804 -0.24807,0.49712 -0.626205,0.99181 -1.203125,1.11133 -0.92204,0.19103 -1.616231,-0.36724 -1.994141,-1.16601 -0.61852,-1.30731 -0.518794,-3.87425 1.291016,-4.19922 0.09882,-0.0178 0.19632,-0.0243 0.291015,-0.0234 z m 4.269532,0.0762 c 0.285696,-0.0144 0.577646,0.0195 0.855468,0.084 0.470281,0.10918 0.945837,0.35496 1.222657,0.76367 0.49411,0.72952 0.267574,1.89801 -0.416016,2.41992 -0.38319,0.29255 -0.874679,0.39942 -1.349609,0.39062 -0.16864,-0.003 -0.407985,-10e-4 -0.521485,-0.15039 -0.0999,-0.13145 -0.07382,-0.34354 -0.07422,-0.49804 v -1.19141 -1.78711 c 0.09364,-0.0159 0.187971,-0.0264 0.283203,-0.0312 z m -13.660157,0.60742 c -0.179306,-0.005 -0.360555,0.0271 -0.453125,0.0937 -0.205129,0.14777 -0.0743,0.39924 0.13086,0.44922 0.0873,0.0213 0.180641,0.0155 0.269531,0.0176 v 0.002 4.00586 c -0.24202,0.0159 -0.747939,0.25622 -0.355469,0.51563 0.25039,0.1655 0.771344,0.095 1.058594,0.0762 0.11404,-0.007 0.244798,-0.0196 0.330078,-0.10547 0.29994,-0.3021 -0.192124,-0.43789 -0.333984,-0.58789 -0.097,-0.10258 -0.09786,-0.25223 -0.101563,-0.38477 -0.0274,-0.97307 -0.002,-1.95229 -0.002,-2.92578 0,-0.26657 0.104005,-0.82225 -0.103515,-1.02734 -0.08306,-0.0821 -0.260147,-0.12371 -0.439454,-0.12891 z m 19.070313,1.69727 c 0.523188,-0.0264 1.040873,0.1919 1.330078,0.65234 0.52226,0.83149 0.113613,2.12638 -0.904297,2.31446 -0.52342,0.0967 -1.081191,-0.0639 -1.425781,-0.48047 -0.68097,-0.82319 -0.351386,-2.25249 0.777344,-2.46094 0.07437,-0.0137 0.147915,-0.0216 0.222656,-0.0254 z"
       style="fill:#0b0b0b"
       id="name" /><path
       d="m 81.098208,86.882407 c 0.17928,0.604633 0.389054,1.211148 0.183593,1.841797 -0.26679,0.818944 -0.949528,1.287933 -1.449218,1.949219 -0.48507,0.641934 -0.644979,1.507758 -0.386719,2.273437 0.0846,0.25094 0.202483,0.497989 0.376953,0.699219 0.24948,0.287756 0.573539,0.488299 0.949219,0.546875 -0.13313,-0.482529 -0.248021,-0.977907 -0.05078,-1.462891 0.22369,-0.55011 0.743723,-0.848084 1.095703,-1.300781 0.91609,-1.178211 1.232829,-2.605123 0.224609,-3.841797 -0.25067,-0.307466 -0.561109,-0.585289 -0.94336,-0.705078 z m 4.169922,0 c 0.003,1.122777 0.343151,2.216074 1.138671,3.03125 0.248621,0.25476 0.528695,0.521785 0.865235,0.654297 0.31087,0.122404 0.646939,0.105436 0.974609,0.105469 -0.20067,-0.953872 -1.393957,-1.396726 -1.679687,-2.328125 0.52398,0.421194 1.015958,0.895216 1.386718,1.460937 0.15181,0.231647 0.268643,0.75078 0.570313,0.822266 0.2918,0.06915 0.368521,-0.218932 0.369141,-0.44336 0.001,-0.484857 -0.166022,-1.002488 -0.425782,-1.408203 -0.67145,-1.048687 -1.980008,-1.721847 -3.199218,-1.894531 z m -7.908204,0.140625 c -0.01702,-3.59e-4 -0.03602,5.24e-4 -0.05469,0.002 -1.12075,0.0858 -2.366964,0.987154 -2.865234,1.96875 -0.24431,0.481311 -0.70038,1.727028 0.21289,1.730469 1.23293,0.0046 2.230875,-1.050528 2.703125,-2.109375 0.1609,-0.360777 0.276777,-0.741505 0.310547,-1.136719 0.02119,-0.247506 -0.05136,-0.449696 -0.306641,-0.455078 z m -0.865234,1.375 c -0.2536,0.634972 -0.937352,1.410959 -1.570312,1.679687 0.19494,-0.622045 0.954672,-1.457209 1.570312,-1.679687 z m 14.744141,0.09766 c -0.328461,0.02297 -0.718956,0.590525 -0.878907,0.824219 -0.392529,0.573501 -0.572141,1.380484 -0.363281,2.056641 0.21588,0.698873 0.703933,1.321052 1.064453,1.949218 h 0.164063 c 0.17637,-0.233548 0.384004,-0.442392 0.521484,-0.703125 0.48718,-0.923926 0.568576,-2.054896 0.222656,-3.033203 -0.0991,-0.280248 -0.329588,-1.078896 -0.699218,-1.09375 -0.01046,-4.2e-4 -0.02066,-7.41e-4 -0.03125,0 z m -19.445313,0.05469 c -0.01582,5.31e-4 -0.03262,0.0015 -0.04883,0.0059 -0.30491,0.08292 -0.516685,0.722304 -0.634766,0.980469 -0.4483,0.980155 -0.318258,1.964262 0.238282,2.86914 0.19906,0.323661 0.394145,0.667901 0.759765,0.8125 0.632,-0.925518 1.285112,-1.860327 0.925782,-3.033203 -0.077,-0.251254 -0.197108,-0.480812 -0.335938,-0.703125 -0.17264,-0.276436 -0.371684,-0.562114 -0.615234,-0.78125 -0.07814,-0.07028 -0.178336,-0.15411 -0.289063,-0.15039 z m 11.632813,0.335937 c 0.21372,1.240267 -0.563632,2.271853 -1.294922,3.195313 -0.31523,0.398067 -0.930219,1.104212 -0.56836,1.65625 0.127031,0.193795 0.380004,0.125758 0.564454,0.07031 0.44882,-0.134917 0.859651,-0.412074 1.175781,-0.755859 0.7608,-0.827356 0.848922,-1.972968 0.638672,-3.029297 -0.0788,-0.395935 -0.183635,-0.876594 -0.515625,-1.136719 z m 7.582031,1.191406 h 0.107422 c 0.1801,0.538235 0.198392,1.375287 -0.05469,1.894532 -0.24696,-0.567862 -0.339644,-1.328693 -0.05273,-1.894532 z m -19.117188,0.107422 h 0.109375 c 0.23942,0.660995 0.117721,1.275532 0,1.949219 h -0.05469 c -0.25684,-0.650127 -0.259198,-1.286281 -0.05469,-1.949219 z m 15.414063,1.347657 c -0.175414,1.26e-4 -0.350551,0.01814 -0.521484,0.05859 -0.29817,0.07057 -1.029451,0.243402 -1.150391,0.564453 -0.0555,0.147271 0.04897,0.297938 0.130859,0.41211 0.18838,0.262589 0.439563,0.48456 0.695313,0.679687 1.04257,0.795438 2.563948,0.973495 3.736328,0.34961 -0.391256,-1.131554 -1.662728,-2.065337 -2.890625,-2.064453 z m -11.892578,0.01172 c -0.07233,0.0036 -0.143676,0.01039 -0.216797,0.02148 -0.73624,0.111695 -1.297115,0.586488 -1.734375,1.164062 -0.13315,0.175864 -0.404649,0.499168 -0.292969,0.738281 0.0831,0.178032 0.339866,0.236904 0.509766,0.289063 0.4792,0.147113 1.019518,0.211517 1.517578,0.138672 0.71605,-0.104726 1.283944,-0.459574 1.802734,-0.949219 0.16809,-0.158651 0.44247,-0.380832 0.41211,-0.642578 -0.0285,-0.245859 -0.34327,-0.35505 -0.53711,-0.4375 -0.467215,-0.198726 -0.954603,-0.347735 -1.460937,-0.322266 z m -6.001953,0.203125 c -0.01731,-2.19e-4 -0.03491,0.0017 -0.05273,0.0059 -0.14517,0.03409 -0.222853,0.205843 -0.277343,0.328125 -0.1567,0.351593 -0.167889,0.704156 -0.167969,1.082031 -7e-5,0.321462 -0.02802,0.659514 0.04687,0.974609 0.21267,0.895048 1.054789,1.935809 1.849609,2.382813 0.52583,-1.311337 0.408712,-2.683266 -0.423828,-3.84375 -0.19302,-0.269061 -0.412696,-0.531098 -0.660156,-0.751953 -0.08479,-0.07564 -0.193304,-0.176197 -0.314453,-0.177735 z m 24.517578,0.0918 c -0.28973,0.01645 -0.596813,0.386484 -0.783203,0.580078 -0.67136,0.697307 -1.190523,1.703647 -1.158203,2.69336 0.0119,0.363671 0.118486,0.745526 0.253906,1.082031 0.0505,0.125561 0.127432,0.317817 0.294922,0.298828 0.27462,-0.03113 0.558902,-0.430636 0.732422,-0.619141 0.66054,-0.717566 1.174986,-1.647769 1.128906,-2.65625 -0.0162,-0.354084 -0.01719,-0.746367 -0.142578,-1.082031 -0.054,-0.144483 -0.148892,-0.306943 -0.326172,-0.296875 z m -6.873047,0.621094 c 0.54034,0.02393 1.338292,0.15029 1.732422,0.541016 -0.57595,-2.13e-4 -1.393202,0.0061 -1.732422,-0.541016 z m -11.429688,0.002 c 0.192971,-0.0041 0.378772,0.01332 0.544922,0.05273 v 0.107422 c -0.69775,0.341031 -1.405205,0.378907 -2.166015,0.378907 0.396082,-0.328537 1.042183,-0.526825 1.621093,-0.539063 z m -5.791015,1.080078 c 0.40838,0.339536 0.572718,0.779378 0.486328,1.300781 -0.42387,-0.2667 -0.636218,-0.816891 -0.486328,-1.300781 z m 23.71875,0.05469 c -0.0378,0.478366 -0.183273,1.119604 -0.595703,1.408203 0.0122,-0.505158 0.06521,-1.191197 0.595703,-1.408203 z m -19.427735,1.126953 c -0.132532,0.0048 -0.263375,0.01854 -0.392578,0.04102 -0.93424,0.162498 -1.602854,0.774373 -1.927734,1.648438 -0.081,0.217839 -0.333012,0.655164 -0.132813,0.865234 0.285,0.299051 1.055747,0.14406 1.410157,0.08789 0.88475,-0.140223 1.62484,-0.749191 2.21289,-1.386719 0.16397,-0.177757 0.541856,-0.521883 0.478516,-0.796875 -0.0441,-0.191521 -0.311263,-0.250557 -0.470703,-0.298828 -0.37362,-0.113114 -0.780137,-0.174598 -1.177735,-0.160156 z m 14.496094,0.113281 c -0.12573,0.0045 -0.250899,0.01462 -0.375,0.03125 -0.22312,0.02989 -0.616917,0.07622 -0.710937,0.324219 -0.0535,0.141193 0.0407,0.291932 0.111328,0.408203 0.19328,0.318138 0.435901,0.607155 0.707031,0.861328 0.72853,0.682966 1.965046,1.161062 2.972656,0.896484 0.26493,-0.06956 0.263962,-0.285722 0.201172,-0.511718 -0.10626,-0.382496 -0.276419,-0.779307 -0.537109,-1.082032 -0.592095,-0.68759 -1.489032,-0.959575 -2.369141,-0.927734 z m -7.501953,0.117188 c -0.171502,4.2e-5 -0.342481,0.0062 -0.509766,0.02148 -0.985708,0.09029 -1.999816,-0.101079 -2.978515,0.0293 0.01449,0.219668 -0.02326,0.748799 0.195312,0.871094 0.14213,0.07953 0.353516,0.04868 0.509766,0.04883 0.41907,4.07e-4 0.826771,-0.027 1.244141,-0.04883 1.2958,-0.06777 2.60314,0.0246 3.90039,-0.0059 0.48754,-0.01146 0.972198,-0.05066 1.460938,-0.05273 0.15783,-6.69e-4 0.409417,0.03461 0.523437,-0.103516 0.13544,-0.16409 0.123125,-0.645135 -0.109375,-0.720703 -0.13019,-0.04231 -0.280372,-0.0034 -0.414062,-0.0039 -0.35287,-0.0014 -0.723519,0.02552 -1.074219,-0.0039 -0.39882,-0.03346 -0.798509,0.0195 -1.199219,0.01953 -0.506745,3.3e-5 -1.03432,-0.05091 -1.548828,-0.05078 z m 14.265625,0.298828 c -0.03049,0.0012 -0.06249,0.0078 -0.09961,0.01758 -0.33164,0.08739 -0.617115,0.380339 -0.865235,0.601562 -0.65813,0.586788 -1.212401,1.258786 -1.488281,2.111328 -0.11389,0.351962 -0.146939,0.713648 -0.136719,1.082032 0.005,0.19596 0.03004,0.403849 0.275391,0.378906 0.22249,-0.02262 0.444891,-0.145308 0.644531,-0.238281 0.97271,-0.452984 1.5565,-1.286018 1.81836,-2.306641 0.10413,-0.405871 0.142629,-0.82602 0.130859,-1.244141 -0.0061,-0.220091 -0.06587,-0.410758 -0.279297,-0.402343 z m -27.490234,0.0039 c -0.0461,0.0023 -0.08974,0.01634 -0.13086,0.04297 -0.26044,0.168622 -0.159301,0.849855 -0.144531,1.113281 0.0607,1.082451 0.535098,2.030743 1.455078,2.619141 0.23587,0.150857 0.761722,0.504679 1.050781,0.333984 0.289851,-0.17116 0.309242,-0.769305 0.269532,-1.058594 -0.12567,-0.91547 -0.968814,-1.764111 -1.589844,-2.382812 -0.168044,-0.167418 -0.587469,-0.68401 -0.910156,-0.66797 z m 6.216797,0.398437 c -0.23126,0.590311 -1.152722,0.904604 -1.732422,1.029297 0.40401,-0.61484 1.035452,-0.891531 1.732422,-1.029297 z m 14.947265,0.107422 c 0.57373,0.145162 1.202315,0.320838 1.515625,0.867188 L 89.438051,96.16561 Z m -4.386719,0.867188 c -0.77661,0.01873 -1.549385,0.10741 -2.328125,0.107422 h -1.625 -0.867187 c -0.32433,0 -0.806838,-0.09007 -1.111328,0.03125 -0.34516,0.137522 0.06192,0.64841 0.248047,0.740234 0.39033,0.192577 0.930692,0.07956 1.351562,0.101563 0.88175,0.0461 1.766064,0.04884 2.652344,0.04883 0.40155,-2e-6 0.928669,0.05775 1.292969,-0.146485 0.3149,-0.176539 0.376619,-0.554956 0.386718,-0.882812 z m 10.072266,0.107422 c -0.0529,0.589072 -0.531684,1.209974 -1.083984,1.408203 0.18895,-0.575453 0.607974,-1.045028 1.083984,-1.408203 z m -26.048828,0.27143 c 0.41572,0.205132 0.743747,0.579157 0.867187,1.029297 -0.408649,-0.211 -0.762541,-0.535965 -0.919921,-0.974609 z m 19.875,1.029297 c 0.0311,1.271695 0.551825,2.503343 1.515625,3.341793 0.241,0.20966 0.52195,0.40255 0.8125,0.53711 0.11208,0.0519 0.264683,0.12127 0.382812,0.0469 0.26316,-0.1656 0.31323,-0.88272 0.34961,-1.16406 0.22249,-1.720482 -1.570927,-2.75761 -3.060547,-2.761723 z m -14.080078,0.05273 c -1.37143,0.0015 -2.962669,0.783759 -3.167969,2.275393 -0.0515,0.37457 -0.03321,0.76978 0.05859,1.13672 0.0357,0.14276 0.08417,0.34013 0.21875,0.42383 0.11468,0.0713 0.238823,0.0134 0.345703,-0.043 0.27716,-0.14622 0.55757,-0.32183 0.8125,-0.50391 1.04415,-0.74575 1.731952,-2.010678 1.732422,-3.289063 z m 5.179687,0.279297 c -0.152646,5.8e-4 -0.292171,0.01882 -0.382812,0.07422 -0.21267,0.129986 -0.200521,0.66084 0.04297,0.751953 0.30366,0.113604 0.74179,0.02564 1.0625,0.0332 0.76609,0.01805 1.566718,9.23e-4 2.330078,0.06641 0.27827,0.02387 0.906902,0.170386 1.138672,-0.0332 0.1906,-0.16742 0.06506,-0.712972 -0.177735,-0.773437 -0.37507,-0.09341 -0.847042,-0.01809 -1.232422,-0.01953 -0.68527,-0.0026 -1.370953,-0.05273 -2.058593,-0.05273 -0.175732,0 -0.468247,-0.04784 -0.722657,-0.04687 z m -6.316406,0.966797 c -0.18082,0.513133 -0.676766,1.201239 -1.191406,1.408209 0.0549,-0.66935 0.580906,-1.17817 1.191406,-1.408209 z m 16.462891,0.162109 c 0.56519,0.163983 1.046259,0.9362 0.974609,1.51758 -0.41033,-0.39439 -0.744139,-0.99956 -0.974609,-1.51758 z m -12.78125,0.05469 -0.238282,0.55664 -0.574218,0.31055 c 0.43576,0.22443 0.695618,0.26538 0.705078,0.8125 l 0.703125,-0.2168 0.433594,-0.5957 c -0.24439,-0.002 -0.544867,0.005 -0.691407,-0.23047 -0.14659,-0.236146 -0.04891,-0.506161 -0.33789,-0.63672 z m 8.935547,0.162109 c -0.18559,0.531561 -0.273385,0.704131 -0.865235,0.705081 0.13641,0.48353 0.861418,0.70261 1.298828,0.8125 -0.0395,-0.44182 0.0378,-0.67484 0.488282,-0.8125 l -0.521485,-0.23633 -0.291015,-0.468751 z m 8.841796,0.380861 c -0.09538,0.004 -0.190491,0.0138 -0.285156,0.0312 -0.7332,0.13532 -1.478448,0.52238 -1.892578,1.1582 -0.20544,0.3154 -0.317236,0.6692 -0.416016,1.0293 -0.0428,0.15614 -0.100799,0.35901 0,0.50586 0.2229,0.32473 1.109487,0.23014 1.441407,0.16797 0.87505,-0.16387 1.600427,-0.93356 2.060547,-1.64844 0.14303,-0.22222 0.447361,-0.61266 0.357421,-0.89844 -0.0535,-0.17009 -0.263632,-0.21318 -0.414062,-0.25 -0.277958,-0.068 -0.565425,-0.10847 -0.851563,-0.0957 z m -13.726562,0.084 c -0.01193,-2.6e-4 -0.0239,4.8e-4 -0.03711,0.002 -0.204,0.0227 -0.215813,0.23899 -0.220704,0.40039 -0.0137,0.45235 -0.05664,0.90032 -0.05664,1.35351 -3e-5,1.89576 0.05469,3.7925 0.05469,5.68555 h 0.595703 c 0,-1.91528 -0.04749,-3.82463 -0.05469,-5.74023 -0.002,-0.44782 -0.03284,-0.90402 -0.05664,-1.35157 -0.0084,-0.15382 -0.0457,-0.34578 -0.224609,-0.3496 z m 2.134766,0.002 c -0.176574,0.0107 -0.21635,0.19337 -0.22461,0.34765 -0.0222,0.41536 0.0107,0.82929 -0.0332,1.24415 -0.038,0.35912 -0.02539,0.72138 -0.02539,1.08203 v 1.94922 c 0,0.92195 -0.0974,1.90197 0,2.8164 0.169431,-2.7e-4 0.410068,0.0359 0.554688,-0.0723 0.12807,-0.0958 0.127149,-0.2698 0.130859,-0.41407 0.008,-0.32842 -0.0255,-0.64747 -0.0332,-0.97461 -0.0326,-1.38801 0.0446,-2.78719 -0.0918,-4.16992 -0.046,-0.46665 -0.0064,-0.94011 -0.01953,-1.4082 -0.005,-0.15881 -0.01389,-0.38638 -0.220703,-0.40039 -0.01301,-8.8e-4 -0.02534,-7.1e-4 -0.03711,0 z m -15.583985,0.0156 c -0.121037,0.003 -0.240463,0.0157 -0.345703,0.0606 -0.63968,0.27291 0.03745,1.17593 0.283203,1.50781 0.64596,0.87247 1.957462,1.90089 3.113281,1.29102 0.174301,-0.092 0.197968,-0.23906 0.148438,-0.41797 -0.10309,-0.37231 -0.281677,-0.79762 -0.466797,-1.13672 -0.44301,-0.81148 -1.482433,-1.29734 -2.376953,-1.29883 -0.11169,-1.8e-4 -0.234431,-0.009 -0.355469,-0.006 z m 14.273438,0.006 v 5.63086 1.19141 l 0.103515,0.46875 0.492188,0.0742 -0.109375,-7.36524 z m -2.007813,0.0254 c -0.03777,0.004 -0.07652,0.0198 -0.117187,0.0488 -0.12714,0.0907 -0.139275,0.2704 -0.146485,0.41211 -0.0183,0.35946 -0.0039,0.72412 -0.0039,1.08399 v 4.43945 c 0,0.37024 -0.06847,0.82083 0.01953,1.18164 0.0459,0.188 0.260001,0.27299 0.431641,0.17773 0.1344,-0.0746 0.137438,-0.24982 0.142578,-0.38476 0.0137,-0.35995 0.002,-0.72183 0.002,-1.08203 v -4.54883 c 0,-0.34926 0.04252,-0.73703 -0.04687,-1.07813 -0.0368,-0.14032 -0.146342,-0.26529 -0.28125,-0.25 z m 14.78711,0.94922 c -0.31303,0.70659 -1.321901,1.12513 -2.056641,1.13672 0.37098,-0.55615 1.403781,-1.04716 2.056641,-1.13672 z m -20.265625,0.19141 c -0.01369,-6.1e-4 -0.02859,9.4e-4 -0.04297,0.002 -0.30923,0.0218 -0.642873,0.43151 -0.845703,0.63672 -0.83586,0.84574 -1.221463,1.94897 -0.564453,3.01367 0.15412,0.24975 0.302314,0.50596 0.458984,0.75391 0.0603,0.0955 0.133849,0.21289 0.261719,0.21289 0.31114,0 0.591052,-0.46682 0.732422,-0.69531 0.5281,-0.85357 0.621042,-1.8318 0.544921,-2.81641 -0.02383,-0.30856 -0.120437,-1.08852 -0.544921,-1.10742 z m 14,0.043 c -0.03593,0.002 -0.06969,0.008 -0.101563,0.0215 -0.26779,0.11137 -0.292835,0.63852 -0.322266,0.88086 -0.11721,0.96538 0.109724,1.92555 0.595704,2.76172 0.14463,0.24883 0.515595,0.93142 0.884765,0.7832 0.25933,-0.10411 0.399661,-0.49954 0.519531,-0.72851 0.556781,-1.06359 0.412235,-2.26003 -0.509765,-3.06641 -0.206245,-0.18038 -0.719095,-0.6676 -1.066406,-0.65234 z m -19.890625,0.0352 c 0.55859,0.0653 1.204158,0.38902 1.517578,0.86719 -0.57449,-0.14111 -1.183738,-0.35169 -1.517578,-0.86719 z m 5.578125,1.46289 -0.269532,1.78711 c -0.3874,-0.51847 -0.385168,-1.47912 0.269532,-1.78711 z m 14.947265,0 c 0.44479,0.48619 0.568376,1.10734 0.378906,1.73243 h -0.109375 c -0.160129,-0.50772 -0.432361,-1.20301 -0.269531,-1.73243 z m -2.378906,1.03907 c -0.03151,10e-4 -0.06234,0.008 -0.09375,0.0215 -0.26151,0.11315 -0.419526,0.5448 -0.541016,0.78125 -0.42522,0.82756 -0.607573,1.82709 -0.214843,2.70703 0.14871,0.33319 0.654504,1.19907 1.115234,1.00391 0.27937,-0.11835 0.475058,-0.47796 0.611328,-0.73242 0.42829,-0.79979 0.476088,-1.87429 0.117188,-2.70899 -0.13921,-0.32378 -0.352647,-0.66889 -0.623047,-0.89844 -0.100125,-0.085 -0.234533,-0.18026 -0.371094,-0.17382 z m -10.267578,0.082 c -0.04297,-7.3e-4 -0.08816,0.008 -0.134766,0.0234 -0.35023,0.11914 -0.555867,0.49462 -0.710937,0.80468 -0.38068,0.76117 -0.650125,1.90486 -0.240235,2.70899 0.16612,0.32589 0.660252,1.1606 1.113282,1.02539 0.31221,-0.0932 0.535847,-0.53325 0.654296,-0.81055 0.36088,-0.84489 0.385211,-1.84274 0.08789,-2.70703 -0.108034,-0.31403 -0.354116,-1.03791 -0.769531,-1.04492 z m 16.978515,0.18164 c -0.715329,-0.0261 -1.497387,0.14112 -2.054687,0.61719 -0.308,0.2631 -0.541561,0.6217 -0.775391,0.94921 -0.18885,0.26451 -0.405213,0.51125 -0.527343,0.81446 1.33466,0.7125 2.924829,0.28763 4.005859,-0.67578 0.2609,-0.23251 0.494419,-0.49958 0.693359,-0.78711 0.0808,-0.11674 0.19039,-0.26837 0.15625,-0.41992 -0.0367,-0.16276 -0.222408,-0.23062 -0.361328,-0.2793 -0.36285,-0.12715 -0.752378,-0.20471 -1.136719,-0.21875 z m -23.410156,0.0625 c -0.12062,-0.005 -0.241995,3.8e-4 -0.363281,0.0137 -0.33758,0.037 -1.150641,0.0342 -1.337891,0.37695 -0.17437,0.3192 0.394922,0.84567 0.576172,1.06055 0.77223,0.91549 1.947941,1.41041 3.144531,1.24023 0.12934,-0.0184 0.255777,-0.0476 0.378907,-0.0918 0.17013,-0.061 0.478455,-0.17645 0.478515,-0.39844 4e-5,-0.16147 -0.156612,-0.28343 -0.257812,-0.38867 -0.18645,-0.19393 -0.323426,-0.41471 -0.478516,-0.63281 -0.488442,-0.68686 -1.296284,-1.14667 -2.140625,-1.17969 z m 23.355469,0.96289 c -0.41942,0.62793 -1.575887,0.76498 -2.273438,0.86719 0.432231,-0.63214 1.555588,-0.85791 2.273438,-0.86719 z m -23.447266,0.0547 c 0.64113,0.0779 1.654141,0.25736 2.056641,0.8125 -0.65129,-0.004 -1.775801,-0.12085 -2.056641,-0.8125 z m 16.894532,0.43359 h 0.162109 c 0.20034,0.58304 0.139078,1.11091 -0.107422,1.67773 H 86.73102 c -0.21076,-0.58752 -0.191015,-1.10427 0.05273,-1.67773 z m -10.613282,0.10742 h 0.107422 c 0.32957,0.53588 0.361027,1.28877 0.216797,1.89649 h -0.05273 c -0.34748,-0.61595 -0.502605,-1.20795 -0.271485,-1.89649 z m 13.617188,1.89649 c -0.09718,0.003 -0.194582,0.0126 -0.294922,0.0273 -0.67884,0.0996 -1.076183,0.5341 -1.570313,0.96875 -0.134389,0.11821 -0.461995,0.33017 -0.384765,0.54883 0.0761,0.21563 0.408149,0.33156 0.599609,0.40625 0.63479,0.24761 1.386634,0.28239 2.058594,0.18164 0.52387,-0.0786 1.026785,-0.2566 1.515625,-0.45508 0.18482,-0.075 0.466942,-0.15928 0.513672,-0.38476 0.0663,-0.32008 -0.345466,-0.5534 -0.566406,-0.69141 -0.583083,-0.36421 -1.190827,-0.62194 -1.871094,-0.60156 z m -16.919922,0.10351 c -0.105174,0.004 -0.214352,0.0144 -0.326172,0.0312 -0.48291,0.0727 -0.984339,0.25886 -1.349609,0.58985 -0.1831,0.16593 -0.373778,0.40698 -0.210938,0.65234 0.14079,0.21214 0.421315,0.35735 0.640625,0.47266 0.74722,0.39286 1.61743,0.43346 2.4375,0.29687 0.32008,-0.0533 1.148229,-0.19739 1.230469,-0.58594 0.0557,-0.26329 -0.363084,-0.53816 -0.527344,-0.6875 -0.575111,-0.52285 -1.158314,-0.79873 -1.894531,-0.76953 z m 9.800781,0.41211 c -0.19106,0.004 -0.38339,0.0225 -0.541015,0.0332 -0.32641,0.0221 -0.65068,-0.0145 -0.97461,0.0117 -0.47165,0.0382 -0.934933,-0.0267 -1.408203,0.0352 0.002,0.20193 -0.01306,0.44721 0.181641,0.57031 0.21341,0.13496 0.552488,0.0781 0.792968,0.0781 h 1.677735 c 0.24643,0 0.577468,0.0533 0.798828,-0.0781 0.22525,-0.13377 0.288286,-0.4857 0.0039,-0.58789 -0.150515,-0.0541 -0.34019,-0.0662 -0.53125,-0.0625 z m 7.5,0.3457 c 0.193505,2.5e-4 0.384064,0.006 0.56836,0.006 -0.309155,0.43096 -1.038914,0.3529 -1.515625,0.38672 -0.24633,0.0175 -0.461609,0.0481 -0.705079,-0.008 0.472132,-0.34348 1.07183,-0.38549 1.652344,-0.38477 z m -16.998047,0.15821 c 0.438038,-0.0183 0.900766,0.0794 1.267578,0.22656 v 0.0527 c -0.64086,0.13128 -1.380106,0.0817 -2.003906,-0.10742 0.219803,-0.10861 0.473506,-0.16089 0.736328,-0.17187 z m 12.791016,0.71484 c -0.36459,0.009 -0.911546,0.39308 -1.160156,0.64063 -0.15224,0.15159 -0.181394,0.46599 0.09766,0.49609 0.33811,0.0365 0.889538,-0.47376 1.085937,-0.71484 0.0961,-0.118 0.260383,-0.42877 -0.02344,-0.42188 z m -3.095703,0.12695 c -0.161445,10e-4 -0.341281,0.033 -0.46875,0.0332 h -1.78711 c -0.23143,5e-5 -0.626709,-0.0645 -0.755859,0.18554 -0.13913,0.26939 -0.02211,0.77181 0.02539,1.0586 0.0204,0.12329 0.0466,0.26648 0.166015,0.33203 0.18379,0.10086 0.471379,0.0447 0.673828,0.0566 0.625961,0.0367 1.499547,0.19274 2.097657,-0.043 0.23086,-0.091 0.336273,-0.53643 0.08984,-0.67383 -0.20093,-0.11203 -0.511702,-0.0202 -0.726562,-0.002 -0.55818,0.0466 -1.416611,0.2063 -1.894531,-0.1543 0.4133,-0.0402 0.830573,-0.10355 1.246093,-0.10937 0.270381,-0.004 0.542151,-0.004 0.8125,0.002 0.22456,0.005 0.527684,0.0836 0.720704,-0.0684 0.13685,-0.10774 0.2641,-0.47301 0.05664,-0.57422 -0.06993,-0.0341 -0.158992,-0.0438 -0.255859,-0.043 z m -5.570313,0.084 c -0.0352,0.002 -0.06821,0.0123 -0.0957,0.0332 -0.13523,0.10309 0.04185,0.29217 0.119141,0.36524 0.18843,0.1782 0.758629,0.6638 1.037109,0.46679 0.16625,-0.11761 0.09524,-0.31303 -0.03516,-0.42187 -0.21254,-0.17742 -0.535055,-0.31192 -0.796875,-0.39649 -0.06311,-0.0204 -0.151085,-0.0517 -0.228516,-0.0469 z"
       style="fill:#0b0b0b"
       id="emblem" /></g></svg>
